<svg viewBox="0 0 370 58" fill="none" xmlns="http://www.w3.org/2000/svg" role="img" aria-label="LINKHIPU"><line x1="4" y1="20" x2="46" y2="20" stroke="white" stroke-width="2.2" stroke-linecap="round"/><circle cx="12" cy="20" r="4" fill="transparent" stroke="white" stroke-width="2"/><circle cx="30" cy="20" r="4" fill="transparent" stroke="white" stroke-width="2"/><circle cx="39" cy="20" r="4" fill="transparent" stroke="white" stroke-width="2"/><line x1="4" y1="31" x2="46" y2="31" stroke="white" stroke-width="2.2" stroke-linecap="round"/><circle cx="21" cy="31" r="4" fill="transparent" stroke="white" stroke-width="2"/><line x1="4" y1="42" x2="46" y2="42" stroke="white" stroke-width="2.2" stroke-linecap="round"/><circle cx="12" cy="42" r="4" fill="transparent" stroke="white" stroke-width="2"/><circle cx="30" cy="42" r="4" fill="transparent" stroke="white" stroke-width="2"/><circle cx="39" cy="42" r="4" fill="transparent" stroke="white" stroke-width="2"/><rect x="52" y="11" width="3" height="40" rx="1.5" fill="#e03030"/><text font-family="Manrope,'Helvetica Neue',Arial,sans-serif" font-weight="500" font-size="35" x="59" y="46" fill="white">L</text><rect x="82" y="16" width="2.2" height="10" fill="white"/><circle cx="83.1" cy="31" r="4.5" fill="none" stroke="white" stroke-width="2.2"/><rect x="82" y="35.5" width="2.2" height="10.5" fill="white"/><text font-family="Manrope,'Helvetica Neue',Arial,sans-serif" font-weight="500" font-size="35" x="90" y="46" fill="white">N</text><text font-family="Manrope,'Helvetica Neue',Arial,sans-serif" font-weight="500" font-size="35" x="120" y="46" fill="white">K</text><text font-family="Manrope,'Helvetica Neue',Arial,sans-serif" font-weight="500" font-size="35" x="150" y="46" fill="white">H</text><rect x="181" y="16" width="2.2" height="10" fill="white"/><circle cx="182.1" cy="31" r="4.5" fill="none" stroke="white" stroke-width="2.2"/><rect x="181" y="35.5" width="2.2" height="10.5" fill="white"/><text font-family="Manrope,'Helvetica Neue',Arial,sans-serif" font-weight="500" font-size="35" x="189" y="46" fill="white">P</text><text font-family="Manrope,'Helvetica Neue',Arial,sans-serif" font-weight="500" font-size="35" x="218" y="46" fill="white">U</text></svg>